<svg width="24" height="24" enable-background="new 0 0 24 24" fill="#000000" version="1.1" viewBox="0 0 24 24" xmlns="http://www.w3.org/2000/svg"><path d="m14.727 3.9922c-0.22682-0.0030391-0.46435 0.021813-0.64844 0.0078125-1.728 0.014202-3.4601-0.028178-5.1855 0.021484-0.74959 0.3406-0.059412 1.0402 0.26562 1.4258 0.25678 0.40476 0.72466 0.73577 0.8418 1.1895v2.2559l9.9922 9.9941c-0.015657-0.17247-0.075159-0.3417-0.19141-0.48633l-5.8008-7.7305v-4.1699c0.47037-0.66008 1.1051-1.2314 1.457-1.9551-0.007217-0.46492-0.35243-0.54767-0.73047-0.55273zm-9.2598 2.2363c-0.13626-0.0049676-0.27826 0.048127-0.42773 0.18945-0.2177 0.20631-0.2177 0.58471 0 0.79102l4.3184 4.3184c-1.7477 2.3322-3.5088 4.6554-5.2383 7-0.496 0.93915 0.56431 1.6796 1.4238 1.4727 4.0934-0.006408 8.188 0.009048 12.281-0.005859l1.3535 1.3535c0.37146 0.82142 1.9216 0.75118 1.3066-0.34766l-13.945-13.947c-0.31048-0.2697-0.66348-0.80932-1.0723-0.82422z" fill="#000"/></svg>
